# xmcd
#
# Track frame offsets: 
#        150
#        14048
#        30228
#        41571
#        61719
#        77269
#        90054
#        106325
#        122345
#        136578
#        153230
#        169572
#        188731
#        207499
#        226924
#        243939
#        260050
#        275685
#        290508
#        307661
#        320082
#        338516
#
# Disc length: 4796 seconds
#
# Revision: 0
# Processed by: cddbd v1.5.2PL0 Copyright (c) Steve Scherf et al.
# Submitted via: ExactAudioCopy v0.95b4
#
DISCID=1012ba16
DTITLE=Kenny Rogers - Gold
DYEAR=2002
DGENRE=Country
TTITLE0=Pharoahe Monch Dub Plate
TTITLE1=Lucille
TTITLE2=Blaze of Glory
TTITLE3=Coward of the County
TTITLE4=Love is Strange
TTITLE5=Ruby Don't Take Your Love to Town
TTITLE6=Don't Fall in Love with a Dreamer
TTITLE7=The Gambler
TTITLE8=Daytime Friends and Nightime Lovers
TTITLE9=Desperado
TTITLE10=Love Lifted Me
TTITLE11=She Believes in Me
TTITLE12=Have I Told You Lately That I Love You
TTITLE13=Something Burning
TTITLE14=When a Man Loves a Woman
TTITLE15=You Decorated My Life
TTITLE16=Once in a Lifetime
TTITLE17=Write Your Name
TTITLE18=Up Where We Belong
TTITLE19=There You Go Again
TTITLE20=Islands in the Stream
TTITLE21=Find a Little Grace
EXTD=
EXTT0=
EXTT1=
EXTT2=
EXTT3=
EXTT4=
EXTT5=
EXTT6=
EXTT7=
EXTT8=
EXTT9=
EXTT10=
EXTT11=
EXTT12=
EXTT13=
EXTT14=
EXTT15=
EXTT16=
EXTT17=
EXTT18=
EXTT19=
EXTT20=
EXTT21=
PLAYORDER=
